<svg width="64" height="64" viewBox="0 0 64 64" fill="none" xmlns="http://www.w3.org/2000/svg">
  <rect width="64" height="64" rx="18" fill="#020617" />
  <path
    d="M32 16c-8.8 0-16 7.2-16 16 0 7.1 4.6 13.1 10.9 15.2.8.1 1.1-.4 1.1-.8v-2.8c-4.5 1-5.4-2.1-5.4-2.1-.7-1.8-1.8-2.3-1.8-2.3-1.5-1 .1-1 .1-1 1.6.1 2.4 1.7 2.4 1.7 1.5 2.5 4 1.8 5 .9.1-1.1.6-1.8 1-2.2-3.6-.4-7.4-1.8-7.4-7.9 0-1.8.6-3.3 1.7-4.5-.2-.4-.8-2.1.2-4.3 0 0 1.4-.4 4.6 1.7a15.8 15.8 0 0 1 8.4 0c3.2-2.1 4.6-1.7 4.6-1.7 1 2.2.4 3.9.2 4.3 1.1 1.2 1.7 2.7 1.7 4.5 0 6.1-3.8 7.5-7.4 7.9.6.5 1.1 1.5 1.1 3v4.4c0 .4.3.9 1.1.8C43.4 45.1 48 39.1 48 32c0-8.8-7.2-16-16-16Z"
    fill="#f9fafb"
  />
</svg>
